<?xml version="1.0" standalone="no"?>
<!DOCTYPE svg PUBLIC "-//W3C//DTD SVG 20010904//EN"
 "http://www.w3.org/TR/2001/REC-SVG-20010904/DTD/svg10.dtd">
<svg version="1.0" xmlns="http://www.w3.org/2000/svg"
 width="200.000000pt" height="200.000000pt" viewBox="0 0 200.000000 200.000000"
 preserveAspectRatio="xMidYMid meet">
<metadata>
Created by potrace 1.11, written by Peter Selinger 2001-2013
</metadata>
<g transform="translate(0.000000,200.000000) scale(0.100000,-0.100000)"
fill="#000000" stroke="none">
<path d="M433 1749 c-116 -60 -117 -62 -118 -171 -1 -51 1 -101 3 -111 5 -21
164 -117 194 -117 22 0 111 47 166 87 l32 24 0 104 c0 78 -4 107 -15 118 -14
15 -169 107 -179 107 -3 0 -40 -18 -83 -41z"/>
<path d="M947 1778 c-15 -5 -25 -14 -22 -18 3 -5 0 -12 -6 -16 -8 -4 -9 -3 -5
4 9 15 1 15 -25 1 -11 -5 -16 -15 -13 -21 4 -7 3 -8 -5 -4 -14 9 -78 -29 -91
-54 -15 -28 -13 -113 3 -104 8 6 8 3 -1 -9 -16 -19 -13 -73 6 -104 7 -11 24
-24 38 -27 13 -4 24 -11 24 -17 0 -6 5 -7 10 -4 6 3 10 1 10 -5 0 -6 5 -8 10
-5 6 3 10 2 10 -2 0 -5 15 -17 34 -27 36 -19 73 -17 98 7 7 6 35 23 61 36 25
13 44 28 40 34 -3 5 -2 7 3 4 6 -3 16 -2 24 3 15 9 22 154 8 183 -6 11 -5 17
2 17 37 0 -84 90 -180 135 -3 1 -17 -2 -33 -7z m63 -78 c0 -5 -2 -10 -4 -10
-3 0 -8 5 -11 10 -3 6 -1 10 4 10 6 0 11 -4 11 -10z m105 -20 c-3 -5 -12 -10
-18 -10 -7 0 -6 4 3 10 19 12 23 12 15 0z m-107 -65 c-3 -3 -9 2 -12 12 -6 14
-5 15 5 6 7 -7 10 -15 7 -18z m-84 -41 c3 -8 2 -12 -4 -9 -6 3 -10 10 -10 16
0 14 7 11 14 -7z m-24 -50 c0 -8 -19 -13 -24 -6 -3 5 1 9 9 9 8 0 15 -2 15 -3z
m50 2 c0 -3 -4 -8 -10 -11 -5 -3 -10 -1 -10 4 0 6 5 11 10 11 6 0 10 -2 10 -4z
m-5 -46 c3 -5 1 -10 -4 -10 -6 0 -11 5 -11 10 0 6 2 10 4 10 3 0 8 -4 11 -10z
m165 6 c0 -3 -4 -8 -10 -11 -5 -3 -10 -1 -10 4 0 6 5 11 10 11 6 0 10 -2 10
-4z m-99 -43 c13 -16 12 -17 -3 -4 -10 7 -18 15 -18 17 0 8 8 3 21 -13z"/>
<path d="M1378 1762 c-23 -15 -25 -21 -15 -32 10 -12 9 -12 -5 -1 -14 10 -22
10 -47 -5 -16 -10 -27 -22 -24 -27 3 -6 1 -7 -6 -3 -6 4 -23 1 -36 -8 -23 -15
-23 -20 -22 -127 l2 -112 88 -53 c48 -30 93 -54 99 -54 21 0 107 53 101 63 -4
6 -1 7 6 3 7 -5 29 3 52 18 l39 26 0 110 0 111 -35 20 c-19 11 -38 20 -42 20
-4 0 -11 7 -16 14 -4 8 -16 12 -27 10 -11 -2 -18 0 -15 5 8 12 -33 33 -51 26
-9 -3 -12 -1 -9 4 10 15 -7 12 -37 -8z m51 -35 c-2 -1 -13 -9 -24 -17 -19 -14
-19 -14 -6 3 7 9 18 17 24 17 6 0 8 -1 6 -3z m-106 -102 c-3 -9 -8 -14 -10
-11 -3 3 -2 9 2 15 9 16 15 13 8 -4z m260 -20 c-7 -21 -12 -19 -10 4 0 11 5
18 9 15 4 -3 5 -11 1 -19z m-83 1 c0 -2 -8 -10 -17 -17 -16 -13 -17 -12 -4 4
13 16 21 21 21 13z m85 -54 c-3 -3 -11 0 -18 7 -9 10 -8 11 6 5 10 -3 15 -9
12 -12z m-261 -58 c3 -8 2 -12 -4 -9 -6 3 -10 10 -10 16 0 14 7 11 14 -7z m46
6 c0 -5 -5 -10 -11 -10 -5 0 -7 5 -4 10 3 6 8 10 11 10 2 0 4 -4 4 -10z m60
-94 c0 -2 -7 -7 -16 -10 -8 -3 -12 -2 -9 4 6 10 25 14 25 6z"/>
<path d="M190 1345 c-41 -24 -80 -52 -87 -61 -17 -24 -17 -203 0 -224 20 -26
160 -103 187 -103 29 0 177 87 188 111 10 20 9 202 -1 218 -12 19 -168 104
-191 104 -11 -1 -55 -21 -96 -45z"/>
<path d="M644 1344 c-45 -26 -86 -56 -91 -68 -5 -11 -8 -63 -7 -115 2 -109 -2
-104 119 -171 48 -26 79 -38 91 -34 34 12 159 87 172 103 8 10 12 50 12 117
l0 103 -32 24 c-53 39 -144 87 -164 87 -11 0 -56 -21 -100 -46z"/>
<path d="M1095 1344 c-44 -25 -84 -50 -90 -55 -13 -12 -16 -208 -4 -231 8 -15
48 -40 158 -99 33 -18 34 -18 75 5 22 13 62 36 89 51 26 15 52 35 57 45 6 10
10 61 10 113 0 76 -3 99 -17 115 -23 25 -159 102 -181 102 -10 0 -53 -21 -97
-46z"/>
<path d="M450 982 c-40 -20 -86 -49 -101 -64 -28 -25 -29 -29 -29 -123 0 -94
1 -98 29 -123 16 -15 60 -44 99 -64 l70 -38 72 38 c40 20 85 49 101 63 28 26
29 30 28 120 -1 52 -5 101 -10 111 -7 13 -67 51 -180 114 -4 2 -39 -13 -79
-34z"/>
<path d="M1340 979 c-121 -67 -120 -65 -120 -184 0 -119 -1 -118 122 -185 l78
-42 77 43 c125 67 123 65 123 185 l0 103 -32 24 c-31 23 -160 97 -169 97 -2 0
-38 -19 -79 -41z"/>
<path d="M925 995 c-44 -23 -121 -70 -137 -85 -15 -12 -18 -31 -18 -110 0 -62
4 -102 13 -112 18 -23 89 -68 99 -62 4 3 8 1 8 -3 0 -15 54 -41 80 -38 41 4
41 5 34 17 -4 6 -3 8 4 5 15 -10 43 3 35 16 -3 6 -1 7 6 3 6 -4 24 2 40 13 16
12 34 21 40 21 6 0 11 7 11 16 0 8 4 13 9 10 5 -3 11 1 15 9 3 8 0 15 -7 15
-8 0 -6 4 3 10 11 7 11 10 2 10 -8 0 -10 5 -6 12 12 18 11 88 -1 88 -7 0 -7 3
0 8 13 9 16 42 4 42 -5 0 -6 6 -4 13 5 12 -32 40 -120 88 -53 29 -76 32 -110
14z m61 -31 c1 -9 0 -13 -4 -10 -3 4 -7 14 -8 22 -1 9 0 13 4 10 3 -4 7 -14 8
-22z m-61 -23 c-9 -8 -36 -10 -30 -2 2 4 11 8 20 8 8 0 13 -3 10 -6z m145 3
c0 -8 -19 -13 -24 -6 -3 5 1 9 9 9 8 0 15 -2 15 -3z m-185 -23 c3 -5 2 -12 -3
-15 -5 -3 -9 1 -9 9 0 17 3 19 12 6z m61 -37 c1 -9 0 -13 -4 -10 -3 4 -7 14
-8 22 -1 9 0 13 4 10 3 -4 7 -14 8 -22z m-141 -52 c-3 -3 -11 0 -18 7 -9 10
-8 11 6 5 10 -3 15 -9 12 -12z m101 3 c-1 -8 -5 -17 -8 -21 -5 -4 -4 16 1 34
3 9 9 -1 7 -13z m164 5 c0 -5 -2 -10 -4 -10 -3 0 -8 5 -11 10 -3 6 -1 10 4 10
6 0 11 -4 11 -10z m-80 -16 c0 -8 -19 -13 -24 -6 -3 5 1 9 9 9 8 0 15 -2 15
-3z m-189 -31 c13 -16 12 -17 -3 -4 -10 7 -18 15 -18 17 0 8 8 3 21 -13z m244
8 c3 -5 2 -12 -3 -15 -5 -3 -9 1 -9 9 0 17 3 19 12 6z m-139 -63 c3 -4 -1 -5
-10 -4 -8 1 -18 5 -22 8 -3 4 1 5 10 4 8 -1 18 -5 22 -8z m59 3 c-9 -8 -36
-10 -30 -2 2 4 11 8 20 8 8 0 13 -3 10 -6z m61 -3 c3 -4 -1 -5 -10 -4 -8 1
-18 5 -22 8 -3 4 1 5 10 4 8 -1 18 -5 22 -8z m60 0 c3 -4 -1 -5 -10 -4 -8 1
-18 5 -22 8 -3 4 1 5 10 4 8 -1 18 -5 22 -8z m-220 -40 c3 -4 -1 -5 -10 -4 -8
1 -18 5 -22 8 -3 4 1 5 10 4 8 -1 18 -5 22 -8z m54 6 c0 -8 -19 -13 -24 -6 -3
5 1 9 9 9 8 0 15 -2 15 -3z m65 -3 c-9 -8 -36 -10 -30 -2 2 4 11 8 20 8 8 0
13 -3 10 -6z m61 -3 c3 -4 -1 -5 -10 -4 -8 1 -18 5 -22 8 -3 4 1 5 10 4 8 -1
18 -5 22 -8z m21 -43 c0 -8 -4 -12 -9 -9 -5 3 -6 10 -3 15 9 13 12 11 12 -6z
m-102 -34 c-9 -8 -36 -10 -30 -2 2 4 11 8 20 8 8 0 13 -3 10 -6z"/>
<path d="M215 584 c-44 -25 -86 -51 -93 -58 -17 -17 -19 -210 -2 -231 17 -21
166 -105 186 -105 16 0 139 64 179 94 17 12 20 27 22 108 1 51 -3 104 -8 118
-6 16 -39 41 -94 73 -47 26 -91 47 -97 47 -7 0 -49 -21 -93 -46z"/>
<path d="M701 609 c-28 -12 -40 -23 -35 -31 5 -7 2 -9 -8 -6 -18 7 -100 -44
-108 -68 -4 -10 -3 -37 0 -60 4 -24 4 -46 1 -49 -8 -9 0 -89 11 -102 6 -7 22
-19 37 -27 14 -7 52 -28 84 -46 52 -29 61 -31 87 -20 17 7 27 17 23 23 -3 6
-1 7 6 3 6 -4 24 2 40 13 16 12 34 21 39 21 5 0 13 7 16 16 3 8 10 13 15 10
20 -13 28 25 27 126 -1 95 -3 109 -21 122 -11 9 -26 16 -32 16 -7 0 -13 5 -13
11 0 5 -4 7 -10 4 -5 -3 -10 -2 -10 3 0 7 -42 32 -91 53 -9 4 -35 -1 -58 -12z
m29 -69 c0 -5 -5 -10 -11 -10 -5 0 -7 5 -4 10 3 6 8 10 11 10 2 0 4 -4 4 -10z
m100 -20 c0 -5 -2 -10 -4 -10 -3 0 -8 5 -11 10 -3 6 -1 10 4 10 6 0 11 -4 11
-10z m75 -12 c5 4 5 1 1 -6 -6 -10 -11 -10 -22 -1 -8 6 -14 14 -14 16 0 3 6 0
13 -6 8 -6 18 -7 22 -3z m-262 -23 c-3 -9 -8 -14 -10 -11 -3 3 -2 9 2 15 9 16
15 13 8 -4z m64 -20 c0 -8 -4 -12 -9 -9 -5 3 -6 10 -3 15 9 13 12 11 12 -6z
m39 -21 c1 -9 0 -13 -4 -10 -3 4 -7 14 -8 22 -1 9 0 13 4 10 3 -4 7 -14 8 -22z
m140 -10 c1 -9 0 -13 -4 -10 -3 4 -7 14 -8 22 -1 9 0 13 4 10 3 -4 7 -14 8
-22z m-261 -13 c-9 -8 -36 -10 -30 -2 2 4 11 8 20 8 8 0 13 -3 10 -6z m82 -6
c0 -8 -4 -12 -9 -9 -5 3 -6 10 -3 15 9 13 12 11 12 -6z m120 0 c0 -8 -4 -12
-9 -9 -5 3 -6 10 -3 15 9 13 12 11 12 -6z m-240 -30 c0 -8 -4 -12 -9 -9 -5 3
-6 10 -3 15 9 13 12 11 12 -6z m159 -7 c3 -4 -1 -5 -10 -4 -8 1 -18 5 -22 8
-3 4 1 5 10 4 8 -1 18 -5 22 -8z m104 2 c0 -5 -5 -10 -11 -10 -5 0 -7 5 -4 10
3 6 8 10 11 10 2 0 4 -4 4 -10z m-165 -39 c-9 -8 -36 -10 -30 -2 2 4 11 8 20
8 8 0 13 -3 10 -6z m22 -36 c0 -8 -4 -12 -9 -9 -5 3 -6 10 -3 15 9 13 12 11
12 -6z m-61 -20 c-1 -8 -5 -17 -8 -21 -5 -4 -4 16 1 34 3 9 9 -1 7 -13z m64
-39 c0 -3 -4 -8 -10 -11 -5 -3 -10 -1 -10 4 0 6 5 11 10 11 6 0 10 -2 10 -4z"/>
<path d="M1113 589 c-117 -61 -122 -68 -120 -187 1 -67 7 -104 16 -115 15 -19
158 -100 181 -104 16 -2 160 79 186 104 18 19 20 210 1 234 -7 9 -39 31 -72
49 -33 18 -64 36 -70 40 -29 20 -49 17 -122 -21z"/>
</g>
</svg>
